<svg xmlns="http://www.w3.org/2000/svg" width="442" height="166" viewBox="0 0 442 166" role="img" aria-labelledby="t d"><title id="t">pool tournament</title><desc id="d">Pool tournament scheduler, 2026. A single-file web app that schedules and simulates an eight-ball tournament, checked by just over 100,000 assertions.</desc><defs><path id="m2b" d="m260-108v-190h-187v-90h187v-190h94v190h189v90h-189v190z"/><path id="m2c" d="m280 178l-46-21q22-24 42-63q20-39 22-79q-27-4-44-21q-18-18-18-48q0-32 21-52q22-20 50-20q31 0 53 23q22 22 22 68q0 47-15 89q-16 42-40 74q-23 33-47 50z"/><path id="m30" d="m308 12q-71 0-119-32q-47-31-75-84q-28-52-40-117q-12-64-12-129q0-47 6-97q7-51 24-98q16-47 44-85q28-38 71-60q42-22 101-22q71 0 119 32q47 32 76 84q28 53 40 117q12 64 12 129q0 47-7 98q-7 50-24 97q-16 47-44 85q-29 38-71 60q-42 22-101 22zm0-88q46 0 76-24q29-25 45-66q16-41 22-89q7-48 7-95q0-50-8-99q-6-49-23-89q-17-39-46-63q-29-23-73-23q-46 0-76 24q-29 26-45 66q-17 41-23 90q-6 48-6 94q0 51 6 100q7 48 24 88q16 40 46 63q29 23 74 23zm0-206q-28 0-48-20q-18-20-18-48q0-26 18-46q20-20 48-20q28 0 48 20q19 20 19 46q0 28-19 48q-20 20-48 20z"/><path id="m31" d="m262 0v-576l-153 48v-90l247-84v702zm-174 0v-90h440v90z"/><path id="m32" d="m86 0q0-69 16-120q16-51 45-90q29-39 67-70q39-32 83-61q34-23 64-48q29-24 48-54q18-29 18-67q0-50-30-82q-31-32-83-32q-56 0-91 27q-35 27-49 73l-84-38q14-44 45-77q32-34 77-53q46-20 101-20q66 0 113 26q48 25 72 70q26 46 26 104q0 63-26 107q-25 43-67 77q-42 33-92 66q-36 23-68 49q-32 26-53 57q-22 30-26 66h338v90z"/><path id="m33" d="m306 12q-62 0-106-21q-44-21-74-58q-30-37-48-85l86-36q24 58 60 85q35 27 84 27q37 0 67-14q30-13 48-40q18-26 18-66q0-55-35-89q-34-35-103-35h-55v-88h48q54 0 86-30q32-29 32-78q0-50-30-79q-31-29-76-29q-34 0-58 14q-24 14-39 35q-16 21-26 43l-86-33q15-39 44-73q28-34 69-54q41-20 94-20q59 0 105 24q47 23 73 65q26 41 26 95q0 48-23 89q-23 41-64 63q51 20 83 67q32 46 32 111q0 63-31 110q-31 48-83 74q-52 26-118 26z"/><path id="m34" d="m378 0v-170h-326v-56l338-474h80v445h96v85h-96v170zm-204-255h204v-296z"/><path id="m36" d="m310 12q-78 0-130-36q-53-36-79-97q-27-61-27-137q0-79 25-152q26-74 74-135q49-62 118-105q69-44 157-62v82q-60 16-113 51q-53 36-92 87q-39 50-53 108q23-26 58-40q36-14 81-14q62 0 110 30q48 31 76 81q27 50 27 109q0 66-31 118q-30 52-83 82q-52 30-118 30zm-1-88q41 0 73-17q32-17 50-48q18-31 18-71q0-62-39-102q-38-38-102-38q-41 0-73 18q-32 18-50 49q-18 32-18 73q0 40 19 71q18 31 50 48q32 17 72 17z"/><path id="m61" d="m272 12q-53 0-95-19q-41-19-65-57q-24-38-24-96q0-58 29-96q28-37 73-55q46-17 96-17q38 0 71 7q32 7 65 24v-37q0-42-14-66q-14-24-39-33q-24-9-54-9q-41 0-85 16q-44 16-77 38l-27-78q34-21 86-39q53-18 112-18q30 0 63 7q33 7 61 27q28 19 45 56q17 36 17 95v338h-88v-45q-26 24-63 40q-37 17-87 17zm14-81q47 0 81-20q33-21 55-45v-82q-23-14-56-24q-33-9-68-9q-48 0-85 21q-37 22-37 68q0 41 29 66q29 25 81 25z"/><path id="m63" d="m319 12q-102 0-161-70q-60-70-60-197q0-84 28-144q27-60 78-92q50-32 120-32q70 0 118 31q49 30 72 92l-86 31q-12-29-37-49q-25-19-68-19q-67 0-98 49q-32 50-32 133q0 85 32 133q32 48 96 48q43 0 71-21q28-20 41-56l86 29q-21 64-72 99q-51 35-128 35z"/><path id="m65" d="m318 12q-74 0-127-35q-53-35-81-96q-28-61-28-137q0-84 29-144q29-60 83-91q53-32 124-32q60 0 108 26q50 26 79 80q29 54 29 139q0 10 0 26q-1 15-3 33h-377v-81h288q-2-54-21-84q-19-31-47-44q-28-13-56-13q-75 0-110 47q-34 48-34 128q0 90 38 142q39 52 108 52q32 0 62-10q29-11 56-34l54 60q-32 29-76 49q-44 19-98 19z"/><path id="m69" d="m272-10v-501h92v501zm-141 10v-82h375v82zm0-429v-82h196v82zm187-170q-24 0-40-17q-17-16-17-40q0-25 17-42q16-16 40-16q25 0 41 16q17 17 17 42q0 24-17 40q-16 17-41 17z"/><path id="m6e" d="m97 0v-511h93v104l-14-23q8-26 30-47q22-21 54-33q32-13 71-13q58 0 100 22q43 23 66 72q23 50 23 131v298h-92v-300q0-76-34-106q-34-31-82-31q-35 0-62 12q-28 13-44 42q-16 29-16 81v302z"/><path id="m6f" d="m308 12q-73 0-127-32q-54-32-84-92q-29-59-29-143q0-83 29-143q30-60 84-92q54-33 127-33q73 0 127 32q55 32 84 92q29 60 29 143q0 84-29 144q-29 60-84 92q-54 32-127 32zm0-86q70 0 108-49q38-49 38-133q0-83-37-132q-37-49-109-49q-71 0-108 48q-38 48-38 134q0 83 38 132q37 49 108 49z"/><path id="m72" d="m51 0v-82h107v-347h-107v-82h195v114l-6-15q14-33 44-58q30-25 70-39q40-14 83-14q39 0 67 7q28 8 46 18v180h-92v-152l33 42q-13-3-27-5q-14-1-27-1q-55 0-97 17q-41 17-65 51q-23 32-23 80v204h148v82z"/><path id="m73" d="m307 12q-60 0-111-25q-51-26-84-65l62-56q23 24 59 45q35 20 80 20q39 0 66-15q27-16 27-47q0-24-17-41q-17-16-45-29q-29-13-65-27q-45-17-82-37q-36-20-58-49q-21-30-21-74q0-42 24-72q24-30 66-47q42-16 94-16q60 0 105 22q46 22 77 57l-62 52q-20-18-51-34q-31-16-75-16q-40 0-64 14q-25 14-25 40q0 21 16 36q17 14 43 26q26 12 58 23q41 15 81 35q39 20 65 51q25 32 25 83q0 68-51 107q-51 39-137 39z"/><path id="m74" d="m354 12q-72 0-104-35q-31-35-31-95v-311h-114v-82h114v-166l93-45v211h172v82h-172v285q0 21 6 38q6 16 21 25q16 9 46 9q33 0 54-8q21-9 39-19l-12 88q-20 11-46 17q-26 6-66 6z"/><path id="mb7" d="m308-279q-31 0-51-21q-20-21-20-49q0-28 20-49q20-22 51-22q30 0 50 22q21 21 21 49q0 28-21 49q-20 21-50 21z"/><path id="o61" d="m228 12q-84 0-134-45q-49-45-49-120q0-49 26-87q27-38 73-58q47-21 109-21q31 0 61 5q30 4 50 13v-29q0-32-22-50q-22-18-63-18q-38 0-78 14q-39 13-84 41l-46-115q47-32 105-48q57-17 117-17q111 0 165 50q55 51 55 151v322h-149v-37q-23 24-58 37q-34 12-78 12zm39-125q28 0 53-9q24-8 44-25v-42q-18-7-40-11q-22-3-46-3q-40 0-63 13q-23 12-23 36q0 20 20 30q19 11 55 11z"/><path id="o65" d="m294 12q-76 0-131-32q-55-32-84-92q-29-60-29-144q0-82 30-142q30-60 84-92q55-33 130-33q65 0 117 26q53 27 83 80q31 54 31 136q0 14-1 35q0 20-3 41h-325q0 27 12 48q12 20 34 31q22 11 52 11q39 0 65-13q27-12 51-41l86 86q-36 43-86 69q-49 26-116 26zm-96-329h184q-4-27-16-44q-11-17-30-26q-19-9-46-9q-36 0-62 21q-24 21-30 58z"/><path id="o6c" d="m80 0v-655l150-67v722z"/><path id="o6d" d="m75 0v-511h150v47q27-32 55-45q28-14 64-14q46 0 76 17q30 18 47 54q27-34 67-53q42-18 94-18q102 0 149 51q48 50 48 158v314h-150v-259q0-64-17-91q-17-28-57-28q-28 0-45 11q-16 11-24 36q-7 25-7 67v264h-150v-259q0-64-17-91q-17-28-57-28q-42 0-59 26q-17 25-17 88v264z"/><path id="o6e" d="m75 0v-511h150v47q25-30 60-44q35-15 80-15q81 0 129 51q47 50 47 137v335h-150v-261q0-64-18-91q-17-26-61-26q-46 0-66 28q-21 27-21 87v263z"/><path id="o6f" d="m287 12q-110 0-173-71q-64-71-64-196q0-82 29-142q29-61 82-93q53-33 126-33q72 0 125 33q52 32 81 92q29 60 29 143q0 83-28 143q-28 60-81 92q-53 32-126 32zm0-145q41 0 64-32q22-31 22-90q0-59-23-91q-22-32-63-32q-41 0-64 33q-23 33-23 90q0 57 23 89q23 33 64 33z"/><path id="o70" d="m75 203v-714h150v34q33-46 100-46q66 0 113 32q48 33 74 93q25 60 25 143q0 79-27 139q-27 60-75 94q-49 34-112 34q-32 0-57-11q-24-11-41-33v168zm224-336q42 0 65-32q23-33 23-90q0-60-23-91q-22-32-65-32q-25 0-42 6q-17 7-32 22v187q5 13 26 21q21 9 48 9z"/><path id="o72" d="m75 0v-511h150v47q11-24 41-41q30-18 57-18q59 0 100 45l-20 136q-23-20-44-29q-21-8-46-8q-29 0-48 12q-19 12-30 35q-10 24-10 58v274z"/><path id="o74" d="m228 12q-66 0-99-35q-32-35-32-106v-250h-69v-132h69v-140l149-71v211h109v132h-109v232q0 15 8 23q8 8 24 8q38 0 84-20l-17 125q-24 11-53 17q-28 6-64 6z"/><path id="o75" d="m245 12q-79 0-127-51q-48-51-48-137v-335h150v261q0 64 18 91q18 26 61 26q46 0 67-27q20-28 20-88v-263h150v511h-150v-47q-22 29-59 44q-37 15-82 15z"/></defs><rect width="430" height="166" rx="14" fill="#DDE2EA"/><path d="M30 0V36.757999999999996" stroke="#6E7B98" stroke-width="3" fill="none"/><circle cx="30" cy="42.76" r="9.5" fill="#DDE2EA"/><circle cx="30" cy="42.76" r="6.5" fill="#C45C00"/><g fill="#0B1226"><g transform="translate(50 54) scale(.044)"><use href="#o70"/><use href="#o6f" x="586"/><use href="#o6f" x="1157"/><use href="#o6c" x="1729"/><use href="#o74" x="2299"/><use href="#o6f" x="2699"/><use href="#o75" x="3271"/><use href="#o72" x="3879"/><use href="#o6e" x="4296"/><use href="#o61" x="4905"/><use href="#o6d" x="5484"/><use href="#o65" x="6377"/><use href="#o6e" x="6946"/><use href="#o74" x="7542"/></g><g transform="translate(22 104) scale(.03)"><use href="#m31"/><use href="#m30" x="616"/><use href="#m30" x="1232"/><use href="#m2c" x="1848"/><use href="#m30" x="2464"/><use href="#m30" x="3080"/><use href="#m30" x="3696"/><use href="#m2b" x="4312"/><use href="#m61" x="5544"/><use href="#m73" x="6160"/><use href="#m73" x="6776"/><use href="#m65" x="7392"/><use href="#m72" x="8008"/><use href="#m74" x="8624"/><use href="#m69" x="9240"/><use href="#m6f" x="9856"/><use href="#m6e" x="10472"/><use href="#m73" x="11088"/></g></g><g fill="#4A5672"><g transform="translate(22 142) scale(.03)"><use href="#m32"/><use href="#m30" x="616"/><use href="#m32" x="1232"/><use href="#m36" x="1848"/><use href="#mb7" x="3080"/><use href="#m63" x="4312"/><use href="#m73" x="4928"/><use href="#m34" x="6160"/><use href="#m33" x="6776"/><use href="#m30" x="7392"/><use href="#m32" x="8008"/></g></g><rect x=".5" y=".5" width="429" height="165" rx="13.5" fill="none" stroke="#6E7B98" stroke-width="1" stroke-opacity=".7"/><path d="M412 8H422V18" fill="none" stroke="#C45C00" stroke-width="2" stroke-linecap="square"/></svg>
